<svg width="35" height="19" viewBox="0 0 35 19" fill="none" xmlns="http://www.w3.org/2000/svg">
<path d="M17.5 0.617676C17.7901 0.617676 18.0683 0.727772 18.2734 0.923743C18.4785 1.11971 18.5938 1.38551 18.5938 1.66265V5.84257C18.5938 6.11971 18.4785 6.38551 18.2734 6.58148C18.0683 6.77745 17.7901 6.88755 17.5 6.88755C17.2099 6.88755 16.9317 6.77745 16.7266 6.58148C16.5215 6.38551 16.4062 6.11971 16.4062 5.84257V1.66265C16.4062 1.38551 16.5215 1.11971 16.7266 0.923743C16.9317 0.727772 17.2099 0.617676 17.5 0.617676ZM35 17.3373C35 17.6145 34.8848 17.8803 34.6796 18.0762C34.4745 18.2722 34.1963 18.3823 33.9062 18.3823H29.5312C29.2412 18.3823 28.963 18.2722 28.7579 18.0762C28.5527 17.8803 28.4375 17.6145 28.4375 17.3373C28.4375 17.0602 28.5527 16.7944 28.7579 16.5984C28.963 16.4024 29.2412 16.2923 29.5312 16.2923H33.9062C34.1963 16.2923 34.4745 16.4024 34.6796 16.5984C34.8848 16.7944 35 17.0602 35 17.3373ZM5.46875 18.3823C5.75883 18.3823 6.03703 18.2722 6.24215 18.0762C6.44727 17.8803 6.5625 17.6145 6.5625 17.3373C6.5625 17.0602 6.44727 16.7944 6.24215 16.5984C6.03703 16.4024 5.75883 16.2923 5.46875 16.2923H1.09375C0.803669 16.2923 0.52547 16.4024 0.320352 16.5984C0.115234 16.7944 0 17.0602 0 17.3373C0 17.6145 0.115234 17.8803 0.320352 18.0762C0.52547 18.2722 0.803669 18.3823 1.09375 18.3823H5.46875ZM29.8747 5.51444C30.0797 5.71041 30.1949 5.97615 30.1949 6.25324C30.1949 6.53033 30.0797 6.79608 29.8747 6.99204L26.7816 9.94724C26.6807 10.047 26.56 10.1267 26.4265 10.1814C26.2931 10.2362 26.1496 10.265 26.0043 10.2662C25.8591 10.2674 25.7151 10.241 25.5807 10.1884C25.4463 10.1359 25.3241 10.0583 25.2214 9.96019C25.1187 9.86208 25.0375 9.7454 24.9825 9.61698C24.9275 9.48856 24.8999 9.35095 24.9011 9.2122C24.9024 9.07345 24.9326 8.93633 24.9899 8.80884C25.0472 8.68135 25.1305 8.56604 25.235 8.46964L28.3281 5.51444C28.5332 5.31854 28.8114 5.20849 29.1014 5.20849C29.3914 5.20849 29.6696 5.31854 29.8747 5.51444ZM8.21844 9.94724C8.42472 10.1376 8.701 10.2429 8.98778 10.2405C9.27456 10.2382 9.54889 10.1283 9.75168 9.93451C9.95447 9.74076 10.0695 9.47867 10.072 9.20468C10.0745 8.93069 9.96424 8.66673 9.765 8.46964L6.67188 5.51444C6.57098 5.41464 6.45029 5.33503 6.31685 5.28026C6.18341 5.2255 6.03988 5.19667 5.89466 5.19546C5.74943 5.19426 5.60541 5.2207 5.47099 5.27324C5.33657 5.32578 5.21445 5.40338 5.11176 5.50149C5.00906 5.59961 4.92785 5.71628 4.87285 5.8447C4.81786 5.97313 4.79018 6.11073 4.79144 6.24948C4.79271 6.38823 4.82288 6.52536 4.8802 6.65285C4.93752 6.78034 5.02085 6.89565 5.12531 6.99204L8.21844 9.94724ZM17.5 8.9775C15.1794 8.9775 12.9538 9.85827 11.3128 11.426C9.67187 12.9938 8.75 15.1202 8.75 17.3373C8.75 17.6145 8.86523 17.8803 9.07035 18.0762C9.27547 18.2722 9.55367 18.3823 9.84375 18.3823H25.1562C25.4463 18.3823 25.7245 18.2722 25.9296 18.0762C26.1348 17.8803 26.25 17.6145 26.25 17.3373C26.25 15.1202 25.3281 12.9938 23.6872 11.426C22.0462 9.85827 19.8206 8.9775 17.5 8.9775ZM17.5 11.0675C19.0512 11.067 20.5525 11.5915 21.7374 12.548C22.9223 13.5045 23.7143 14.831 23.9728 16.2923H11.025C11.2836 14.8307 12.0759 13.5038 13.2613 12.5473C14.4466 11.5908 15.9484 11.0665 17.5 11.0675Z" fill="#EB6F4C"/>
</svg>
