<svg width="18" height="18" viewBox="0 0 18 18" fill="none" xmlns="http://www.w3.org/2000/svg">
<path d="M13.2103 11.289C14.2996 9.86866 14.7874 8.10769 14.5763 6.35838C14.3652 4.60908 13.4706 3.00046 12.0715 1.85434C10.6725 0.708224 8.87214 0.109138 7.03069 0.176939C5.18923 0.244739 3.44246 0.974425 2.13986 2.22001C0.837249 3.4656 0.0748641 5.13523 0.00522715 6.89487C-0.0644098 8.65451 0.563837 10.3744 1.76428 11.7104C2.96472 13.0465 4.64882 13.9001 6.47966 14.1006C8.3105 14.3011 10.1531 13.8337 11.6387 12.7918H11.6376C11.6713 12.8348 11.7073 12.8756 11.7478 12.9154L16.0789 17.0539C16.2898 17.2556 16.576 17.369 16.8744 17.3691C17.1728 17.3692 17.4591 17.256 17.6702 17.0545C17.8812 16.8529 17.9999 16.5795 18 16.2943C18.0001 16.0092 17.8817 15.7357 17.6707 15.534L13.3396 11.3954C13.2994 11.3565 13.2562 11.3206 13.2103 11.2879V11.289ZM13.5005 7.15691C13.5005 7.93331 13.3405 8.70211 13.0295 9.41941C12.7186 10.1367 12.2628 10.7885 11.6883 11.3375C11.1138 11.8865 10.4317 12.322 9.681 12.6191C8.93033 12.9162 8.12576 13.0691 7.31324 13.0691C6.50071 13.0691 5.69615 12.9162 4.94547 12.6191C4.1948 12.322 3.51272 11.8865 2.93818 11.3375C2.36364 10.7885 1.90788 10.1367 1.59695 9.41941C1.28601 8.70211 1.12597 7.93331 1.12597 7.15691C1.12597 5.5889 1.77784 4.0851 2.93818 2.97635C4.09851 1.8676 5.67227 1.24471 7.31324 1.24471C8.9542 1.24471 10.528 1.8676 11.6883 2.97635C12.8486 4.0851 13.5005 5.5889 13.5005 7.15691Z" fill="white"/>
</svg>
